<?xml version="1.0" encoding="utf-8"?>
<!-- Generator: Adobe Illustrator 18.1.0, SVG Export Plug-In . SVG Version: 6.00 Build 0)  -->
<svg version="1.1" id="Atlassian__x5F__Blue" xmlns="http://www.w3.org/2000/svg" xmlns:xlink="http://www.w3.org/1999/xlink"
	 x="0px" y="0px" width="326.4px" height="298px" viewBox="0 0 326.4 298" enable-background="new 0 0 326.4 298"
	 xml:space="preserve">
<g>
	<path fill="#59AFE1" d="M325,3.1c-1.4-1.9-3.8-3.1-6.2-3.1c-1.2,0-2.5,0.3-3.6,0.9c-45.3,24.8-97.9,37.9-152,38
		c-54.1,0-106.7-13.1-152-38C10.1,0.3,8.9,0,7.7,0C5.2,0,2.9,1.2,1.5,3.1C-0.7,6-0.7,10.7,2.9,13.6c22.7,16.9,47.7,30.1,74.4,39.2
		c27.6,9.4,56.5,14.1,85.9,14.1h0c29.4,0,58.3-4.8,85.9-14.1c26.7-9,51.7-22.3,74.4-39.2C327.2,10.7,327.1,5.9,325,3.1z"/>
	<path fill="#59AFE1" d="M272.9,73.8c-1.1-0.8-2.4-1.2-3.7-1.2c-0.7,0-1.5,0.1-2.2,0.4c-13.1,5-26.5,8.8-38.7,11.7
		c-2.5,0.6-4.5,2.4-5.3,4.6c-8.9,24.3-31.5,47.5-55.3,71.7c-1,0.9-2.3,2.1-4.5,2.1c-2.2,0-3.5-1.2-4.5-2.1
		c-23.8-24.2-46.4-47.3-55.3-71.6c-0.8-2.2-2.8-4.1-5.3-4.6c-12.2-2.8-25.6-6.8-38.7-11.8c-0.7-0.3-1.4-0.4-2.2-0.4
		c-1.3,0-2.6,0.4-3.7,1.2c-1.7,1.3-2.6,3.4-2.4,5.4c2,20.2,10,40,24.4,60.7c13.5,19.5,31.2,37.5,48.3,54.9
		c31.5,32.1,61.2,62.4,63.8,97.6c0.2,3.2,2.9,5.6,6.1,5.6h37c1.7,0,3.3-0.7,4.4-1.9c1.1-1.2,1.8-2.8,1.7-4.5
		c-1.2-23.5-10-47.1-27.1-72c-3.6-5.2-7.4-10.3-11.4-15.3c-1.6-2-0.9-4.5,0.3-5.8c1.2-1.3,2.5-2.5,3.7-3.8
		c17.1-17.4,34.8-35.4,48.3-54.9c14.4-20.7,22.4-40.4,24.4-60.6C275.4,77.2,274.5,75.1,272.9,73.8z"/>
	<g>
		<path fill="#59AFE1" d="M123.5,222.1c-0.9-0.9-2.2-1.8-4.3-1.8c-2.8,0-4.4,1.9-5,2.9c-15.6,23.7-23.6,46-24.7,68.5
			c-0.1,1.7,0.5,3.3,1.7,4.5c1.1,1.2,2.8,1.9,4.4,1.9h36.9c3.2,0,5.9-2.5,6.1-5.7c0.8-10.8,4.2-21.7,10.3-33.1
			c2.1-3.9,0.5-7.6-0.8-9.2C142.1,242.1,134.6,233.7,123.5,222.1z"/>
	</g>
	<path fill="#59AFE1" d="M163.3,91.9c11.6,0,18.3-0.7,20.7-0.7c2.9,0,5.6,2.3,5.6,5.6c0,1-0.2,1.6-0.4,2.2
		c-1.5,4.1-8.5,18.9-21.6,31.6c-1.5,1.4-3.1,1.7-4.3,1.7h0c-1.1,0-2.8-0.3-4.3-1.7c-13-12.7-20.1-27.5-21.6-31.6
		c-0.2-0.6-0.5-1.3-0.5-2.2c0-3.3,2.7-5.6,5.6-5.6C144.9,91.2,151.6,91.9,163.3,91.9L163.3,91.9z"/>
</g>
</svg>
